<svg id="Layer_1" data-name="Layer 1" xmlns="http://www.w3.org/2000/svg" viewBox="0 0 318.19 50.84"><defs><style>.cls-1{fill:#fff;}.cls-2{fill:#949796;}</style></defs><path class="cls-1" d="M12.38,50.82a13.63,13.63,0,0,1-4.49-.77,11.59,11.59,0,0,1-4-2.38,12.11,12.11,0,0,1-2.84-4A13.71,13.71,0,0,1,0,38a13.84,13.84,0,0,1,1.07-5.64,11.94,11.94,0,0,1,2.82-4,11.54,11.54,0,0,1,4-2.38,13.84,13.84,0,0,1,4.51-.77,1.58,1.58,0,0,1,1.12,2.7,1.57,1.57,0,0,1-1.12.46A10.23,10.23,0,0,0,9,29a8.91,8.91,0,0,0-3,1.75,8.57,8.57,0,0,0-2.08,3A10.91,10.91,0,0,0,3.15,38,10.76,10.76,0,0,0,4,42.35a8.72,8.72,0,0,0,2.09,3A8.41,8.41,0,0,0,9,47.08a10.25,10.25,0,0,0,6.41.13,8.88,8.88,0,0,0,2.71-1.37,8.87,8.87,0,0,0,2.11-2.35,9.54,9.54,0,0,0,1.23-3.34,1,1,0,0,0,0-.39c0-.1-.06-.15-.08-.16a1.23,1.23,0,0,0-.28,0H14.82a1.52,1.52,0,0,1-1.12-.46,1.58,1.58,0,0,1,0-2.23,1.52,1.52,0,0,1,1.12-.46h8.36A1.57,1.57,0,0,1,24.76,38a13.79,13.79,0,0,1-1.08,5.67,12,12,0,0,1-2.84,4,11.54,11.54,0,0,1-4,2.38A13.7,13.7,0,0,1,12.38,50.82Z"/><path class="cls-1" d="M55.81,50.82a9,9,0,0,1-5-1.5,9.3,9.3,0,0,1-1.93-1.72,8.46,8.46,0,0,1-1.35-2.23,1.59,1.59,0,0,1,2.35-1.92,1.57,1.57,0,0,1,.57.68,5.82,5.82,0,0,0,5.37,3.53,5.79,5.79,0,0,0,5.42-3.57,5.61,5.61,0,0,0,.46-2.26,5.68,5.68,0,0,0-.46-2.29,5.8,5.8,0,0,0-3.12-3.11,5.73,5.73,0,0,0-2.3-.46,5.22,5.22,0,0,1-2.1-.42,5.52,5.52,0,0,1-2.87-2.86,5.17,5.17,0,0,1-.42-2.09,5.22,5.22,0,0,1,.42-2.08A5.49,5.49,0,0,1,52,26.8a5.56,5.56,0,0,1,1.71-1.16,5.39,5.39,0,0,1,2.1-.42A5.12,5.12,0,0,1,58.6,26a5.63,5.63,0,0,1,1.95,2,2.1,2.1,0,0,1,.19.77,1.52,1.52,0,0,1-.46,1.12,1.56,1.56,0,0,1-1.12.46,1.6,1.6,0,0,1-.83-.23,1.72,1.72,0,0,1-.56-.58h0a2.35,2.35,0,0,0-.8-.86,2.15,2.15,0,0,0-1.16-.32,2.22,2.22,0,1,0,0,4.43,8.87,8.87,0,0,1,3.53.71,9,9,0,0,1,4.81,4.79,9.15,9.15,0,0,1,0,7,9,9,0,0,1-8.34,5.49Z"/><path class="cls-1" d="M73.53,50.23a1.49,1.49,0,0,1-1.11-.46A1.53,1.53,0,0,1,72,48.65V29.42a.64.64,0,0,0-.21-.49.67.67,0,0,0-.5-.21H67.36a1.61,1.61,0,0,1-1.58-1.58,1.59,1.59,0,0,1,1.58-1.58H79.7a1.57,1.57,0,0,1,1.12.46,1.56,1.56,0,0,1,.46,1.12,1.59,1.59,0,0,1-1.58,1.58H75.82a.67.67,0,0,0-.5.21.68.68,0,0,0-.21.49V48.65a1.56,1.56,0,0,1-.46,1.12A1.52,1.52,0,0,1,73.53,50.23Z"/><path class="cls-1" d="M116.39,50.84a13.67,13.67,0,0,1-4.49-.77,11.59,11.59,0,0,1-4-2.38,12,12,0,0,1-2.83-4A13.62,13.62,0,0,1,104,38.07a13.89,13.89,0,0,1,1.07-5.65,11.92,11.92,0,0,1,2.82-4,11.36,11.36,0,0,1,2.81-1.89l.44-.21,0,.49a2.65,2.65,0,0,0,1,1.93l.49.34-.54.25A9,9,0,0,0,110,30.75a8.56,8.56,0,0,0-2.08,3,11,11,0,0,0-.78,4.32,10.68,10.68,0,0,0,.8,4.3,8.7,8.7,0,0,0,2.08,3A8.41,8.41,0,0,0,113,47.1a10.21,10.21,0,0,0,6.79,0,8.54,8.54,0,0,0,2.94-1.75,8.84,8.84,0,0,0,2.08-3,10.37,10.37,0,0,0,.77-3.7l0-.56.48.27a2.67,2.67,0,0,0,1.31.32,2.75,2.75,0,0,0,.88-.13l.47-.15,0,.5a13.19,13.19,0,0,1-1.05,4.78,12.22,12.22,0,0,1-2.82,4,11.4,11.4,0,0,1-4,2.38A13.7,13.7,0,0,1,116.39,50.84Z"/><path class="cls-1" d="M99.42,50.55a3.8,3.8,0,0,1-1-.15,7.26,7.26,0,0,1-1-.38,10.12,10.12,0,0,1-1-.52,8.35,8.35,0,0,1-.85-.56,9.55,9.55,0,0,1-2.07-2.09,8.33,8.33,0,0,1-1.3-2.66.85.85,0,0,0-.85-.69,8,8,0,0,1-1.88-.39,13.11,13.11,0,0,1-1.86-.82,1.15,1.15,0,0,0-.5-.14c-.2,0-.38,0-.38.5v6a1.49,1.49,0,0,1-.46,1.11,1.57,1.57,0,0,1-2.23,0,1.53,1.53,0,0,1-.46-1.11V27.15a1.59,1.59,0,0,1,1.58-1.58h7.13a9.07,9.07,0,0,1,3.56.68,8.06,8.06,0,0,1,2.75,1.88A8.56,8.56,0,0,1,100.34,31a9.87,9.87,0,0,1,.63,3.56,10.75,10.75,0,0,1-.36,2.8,8.36,8.36,0,0,1-1.1,2.47,8,8,0,0,1-1.82,1.94,8.56,8.56,0,0,1-2.49,1.31h0a.11.11,0,0,0,0,.05,4.87,4.87,0,0,0,1.62,2.75,7.71,7.71,0,0,0,2.94,1.55,1.33,1.33,0,0,1,.91.57,1.61,1.61,0,0,1,.34,1,1.5,1.5,0,0,1-.48,1.12A1.55,1.55,0,0,1,99.42,50.55ZM87,28.73a.23.23,0,0,0-.18.08.27.27,0,0,0-.08.18v5.56a6.81,6.81,0,0,0,.47,2.64A5.13,5.13,0,0,0,88.42,39a4.93,4.93,0,0,0,1.75,1.06,6.51,6.51,0,0,0,4.16,0A4.92,4.92,0,0,0,96.1,39a5.11,5.11,0,0,0,1.24-1.82,6.63,6.63,0,0,0,.47-2.64,6.61,6.61,0,0,0-.47-2.63,5,5,0,0,0-1.23-1.81,5.31,5.31,0,0,0-1.78-1,6.37,6.37,0,0,0-2.07-.34Z"/><path class="cls-1" d="M294.73,50.22a1.52,1.52,0,0,1-1.12-.46,1.49,1.49,0,0,1-.46-1.11V39.92a.38.38,0,0,0-.41-.38H282.42a.33.33,0,0,0-.27.11.35.35,0,0,0-.11.27v8.73a1.53,1.53,0,0,1-.46,1.11,1.59,1.59,0,0,1-2.23,0,1.5,1.5,0,0,1-.47-1.11V34.23a9.52,9.52,0,0,1,.77-4,8.74,8.74,0,0,1,2-2.82,8,8,0,0,1,2.8-1.68,9.36,9.36,0,0,1,6.31,0,8.16,8.16,0,0,1,2.81,1.68,8.45,8.45,0,0,1,2,2.82,9.71,9.71,0,0,1,.75,4V48.65a1.49,1.49,0,0,1-.46,1.11A1.51,1.51,0,0,1,294.73,50.22Zm-7.14-21.84a6.3,6.3,0,0,0-2.08.34,4.86,4.86,0,0,0-1.76,1.05,5.39,5.39,0,0,0-1.24,1.81,6.79,6.79,0,0,0-.47,2.65V36a.38.38,0,0,0,.11.3.37.37,0,0,0,.27.11h10.32c.31,0,.41-.1.41-.41V34.26a6.84,6.84,0,0,0-.47-2.66,5.28,5.28,0,0,0-1.24-1.83,4.94,4.94,0,0,0-1.78-1.05A6.37,6.37,0,0,0,287.59,28.38Z"/><path class="cls-1" d="M43.22,50.23a1.52,1.52,0,0,1-1.12-.46,1.53,1.53,0,0,1-.46-1.11V39.93a.35.35,0,0,0-.11-.27.38.38,0,0,0-.3-.11H30.91a.38.38,0,0,0-.38.38v8.73a1.49,1.49,0,0,1-.46,1.11,1.59,1.59,0,0,1-2.23,0,1.51,1.51,0,0,1-.46-1.11V34.24a9.52,9.52,0,0,1,.76-4,8.74,8.74,0,0,1,2-2.82,8,8,0,0,1,2.8-1.68,9.36,9.36,0,0,1,6.31,0,8.07,8.07,0,0,1,2.81,1.68,8.45,8.45,0,0,1,2,2.82,9.71,9.71,0,0,1,.75,4V48.66a1.57,1.57,0,0,1-1.57,1.57ZM36.09,28.39a6.32,6.32,0,0,0-2.09.34,5,5,0,0,0-1.76,1.05A5.39,5.39,0,0,0,31,31.59a6.79,6.79,0,0,0-.47,2.65V36a.34.34,0,0,0,.11.29.36.36,0,0,0,.27.12H41.23c.31,0,.41-.1.41-.41V34.27a6.84,6.84,0,0,0-.47-2.66,5.28,5.28,0,0,0-1.24-1.83,4.9,4.9,0,0,0-1.77-1.05A6.41,6.41,0,0,0,36.09,28.39Z"/><path class="cls-1" d="M246.8,50h-7.28a1.61,1.61,0,0,1-1.58-1.58V27.14a1.59,1.59,0,0,1,1.58-1.57h5a8.72,8.72,0,0,1,3.55.67,7.49,7.49,0,0,1,2.53,1.8,7.77,7.77,0,0,1,1.48,2.53,8.54,8.54,0,0,1,.48,2.8,8.17,8.17,0,0,1-1.13,4.21v0a.14.14,0,0,0,.05.1,8.51,8.51,0,0,1,1.8,2.46,6.78,6.78,0,0,1,.65,2.9,7.57,7.57,0,0,1-.44,2.53,6.83,6.83,0,0,1-1.34,2.22,6.53,6.53,0,0,1-2.23,1.58A7.68,7.68,0,0,1,246.8,50Zm-5.32-10.69a.37.37,0,0,0-.27.11.35.35,0,0,0-.11.27v6.77a.35.35,0,0,0,.11.27.33.33,0,0,0,.27.11h5.32a4.72,4.72,0,0,0,1.81-.32,3.6,3.6,0,0,0,1.24-.83,3.69,3.69,0,0,0,.71-1.19,4.57,4.57,0,0,0,.23-1.44,7.05,7.05,0,0,0-.25-1.42,3,3,0,0,0-.66-1.17,3.52,3.52,0,0,0-1.28-.84,5.87,5.87,0,0,0-2.1-.32Zm0-10.59a.33.33,0,0,0-.27.11.38.38,0,0,0-.11.3v6.62a.38.38,0,0,0,.11.3.37.37,0,0,0,.27.11h5.32a7.84,7.84,0,0,1,1.7.17,4.86,4.86,0,0,0,.94-3,5.74,5.74,0,0,0-.28-1.73,4.13,4.13,0,0,0-.88-1.48,4.43,4.43,0,0,0-1.52-1.05,5.71,5.71,0,0,0-2.21-.39Z"/><path class="cls-1" d="M273.77,50.53a3.68,3.68,0,0,1-1-.15,6.33,6.33,0,0,1-1-.38,10.06,10.06,0,0,1-1-.51,8.73,8.73,0,0,1-.84-.57,9.54,9.54,0,0,1-2.08-2.08,8.49,8.49,0,0,1-1.3-2.67.85.85,0,0,0-.84-.69,8.12,8.12,0,0,1-1.89-.39,12,12,0,0,1-1.85-.82,1.23,1.23,0,0,0-.5-.14c-.21,0-.38,0-.38.5v6a1.57,1.57,0,0,1-.46,1.12,1.6,1.6,0,0,1-2.24,0,1.57,1.57,0,0,1-.46-1.12V27.13a1.57,1.57,0,0,1,1.58-1.57h7.13a9.12,9.12,0,0,1,3.57.67,8,8,0,0,1,2.74,1.89A8.6,8.6,0,0,1,274.7,31a10.1,10.1,0,0,1,.62,3.57,10.73,10.73,0,0,1-.36,2.79,8.36,8.36,0,0,1-1.1,2.47A8,8,0,0,1,272,41.74a8.33,8.33,0,0,1-2.49,1.31h-.05a.11.11,0,0,0,0,0,4.83,4.83,0,0,0,1.63,2.75,7.8,7.8,0,0,0,2.94,1.56A1.3,1.3,0,0,1,275,48a1.67,1.67,0,0,1,.33,1,1.5,1.5,0,0,1-.48,1.12A1.55,1.55,0,0,1,273.77,50.53ZM261.32,28.71a.22.22,0,0,0-.18.08.23.23,0,0,0-.08.18v5.57a6.61,6.61,0,0,0,.47,2.63A5.11,5.11,0,0,0,262.77,39a4.88,4.88,0,0,0,1.76,1.06,6.48,6.48,0,0,0,4.15,0A5,5,0,0,0,270.46,39a5.24,5.24,0,0,0,1.24-1.82,7.62,7.62,0,0,0,0-5.27,4.93,4.93,0,0,0-3-2.85,6.65,6.65,0,0,0-2.07-.34Z"/><path class="cls-1" d="M312.25,50.82a13.46,13.46,0,0,1-4.5-.79,11.58,11.58,0,0,1-6.8-6.37A13.72,13.72,0,0,1,299.87,38,13.63,13.63,0,0,1,301,32.38a12.1,12.1,0,0,1,2.83-4,11.68,11.68,0,0,1,4-2.38,13.69,13.69,0,0,1,4.5-.77,1.58,1.58,0,0,1,0,3.16,10.43,10.43,0,0,0-3.41.57,8.28,8.28,0,0,0-2.94,1.74,9,9,0,0,0-2.08,3A10.68,10.68,0,0,0,303,38a10.73,10.73,0,0,0,.8,4.33,8.56,8.56,0,0,0,2.1,3,8.65,8.65,0,0,0,2.95,1.75,10.34,10.34,0,0,0,5.28.41,9.35,9.35,0,0,0,1.85-.55,1.44,1.44,0,0,1,.61-.12,1.53,1.53,0,0,1,1.12.46,1.56,1.56,0,0,1,.46,1.12,1.45,1.45,0,0,1-1,1.43h0A13.62,13.62,0,0,1,312.25,50.82Zm.06-26.15a5,5,0,0,1-2.37-.54,12.39,12.39,0,0,1-1.85-1.19,1.19,1.19,0,0,1-.4-.88,1,1,0,0,1,1.1-1.09,1,1,0,0,1,.53.14,6.1,6.1,0,0,0,3,.76,5.29,5.29,0,0,0,2.94-.76h0a1.14,1.14,0,0,1,.55-.13,1,1,0,0,1,1.09,1.09,1,1,0,0,1-.44.89,12.33,12.33,0,0,1-1.82,1.18A5,5,0,0,1,312.31,24.67Z"/><path class="cls-1" d="M145,50.19a1.52,1.52,0,0,1-1.12-.46,1.53,1.53,0,0,1-.46-1.11V27.16a1.55,1.55,0,0,1,.46-1.11,1.53,1.53,0,0,1,1.12-.46h11a1.58,1.58,0,0,1,1.11,2.69,1.55,1.55,0,0,1-1.11.46h-8.72a.74.74,0,0,0-.71.71v6a.76.76,0,0,0,.71.71h6.85a1.52,1.52,0,0,1,1.12.46,1.53,1.53,0,0,1,.46,1.11,1.57,1.57,0,0,1-.46,1.12,1.56,1.56,0,0,1-1.12.46h-6.85a.69.69,0,0,0-.5.2.67.67,0,0,0-.21.5v8.6A1.57,1.57,0,0,1,145,50.19Z"/><path class="cls-1" d="M161.56,50.22a1.51,1.51,0,0,1-1.11-.46,1.49,1.49,0,0,1-.46-1.11V26.83a1.49,1.49,0,0,1,.46-1.11,1.59,1.59,0,0,1,2.23,0,1.51,1.51,0,0,1,.46,1.11V48.65a1.49,1.49,0,0,1-.46,1.11A1.52,1.52,0,0,1,161.56,50.22Z"/><path class="cls-1" d="M174.49,50.8a8.88,8.88,0,0,1-2.64-.4,9,9,0,0,1-2.35-1.1,9.5,9.5,0,0,1-1.92-1.72,8.74,8.74,0,0,1-1.35-2.23,1.62,1.62,0,0,1-.11-.61,1.49,1.49,0,0,1,.46-1.11,1.58,1.58,0,0,1,2-.19,1.71,1.71,0,0,1,.57.68,5.72,5.72,0,0,0,2.1,2.55,5.67,5.67,0,0,0,3.24,1,5.79,5.79,0,0,0,4.14-1.7,5.79,5.79,0,0,0,1.7-4.11,5.85,5.85,0,0,0-.45-2.29,5.91,5.91,0,0,0-1.25-1.86,6.14,6.14,0,0,0-1.86-1.25,5.8,5.8,0,0,0-2.28-.45,5.17,5.17,0,0,1-2.09-.42,5.32,5.32,0,0,1-1.7-1.15,5.52,5.52,0,0,1-1.16-1.7,5.34,5.34,0,0,1-.42-2.09,5.18,5.18,0,0,1,.42-2.07,5.49,5.49,0,0,1,1.16-1.72,5.32,5.32,0,0,1,1.7-1.15,5.41,5.41,0,0,1,4.87.35,5.58,5.58,0,0,1,1.93,2,2.16,2.16,0,0,1,.2.77,1.57,1.57,0,0,1-1.58,1.57,1.6,1.6,0,0,1-.83-.23,1.53,1.53,0,0,1-.55-.58h0a2.41,2.41,0,0,0-.8-.85,2.06,2.06,0,0,0-1.15-.32,2.08,2.08,0,0,0-1.56.65,2.2,2.2,0,0,0,0,3.12,2.08,2.08,0,0,0,1.56.65,9,9,0,0,1,3.51.7,9.28,9.28,0,0,1,2.86,1.92,9.1,9.1,0,0,1,1.92,2.86,8.81,8.81,0,0,1,.7,3.52,8.73,8.73,0,0,1-.7,3.48,9.1,9.1,0,0,1-1.92,2.86A8.94,8.94,0,0,1,178,50.09,8.81,8.81,0,0,1,174.49,50.8Z"/><path class="cls-1" d="M198.43,50.83A13.34,13.34,0,0,1,194,50a11.6,11.6,0,0,1-6.8-6.36A13.87,13.87,0,0,1,186.07,38a13.74,13.74,0,0,1,1.08-5.62,12.1,12.1,0,0,1,2.83-4,11.5,11.5,0,0,1,4-2.37,13.57,13.57,0,0,1,4.48-.77A1.58,1.58,0,0,1,199.55,28a1.56,1.56,0,0,1-1.12.46A10.41,10.41,0,0,0,195,29a8.24,8.24,0,0,0-2.93,1.74,9,9,0,0,0-2.08,3,10.6,10.6,0,0,0-.8,4.29,10.76,10.76,0,0,0,.8,4.33,8.59,8.59,0,0,0,2.09,3,8.68,8.68,0,0,0,2.95,1.75,10.34,10.34,0,0,0,5.28.41,9.26,9.26,0,0,0,1.84-.55,1.51,1.51,0,0,1,.61-.12,1.56,1.56,0,0,1,1.12.46,1.57,1.57,0,0,1,.46,1.12,1.45,1.45,0,0,1-1,1.43h0A13.62,13.62,0,0,1,198.43,50.83Z"/><path class="cls-1" d="M223.17,50.22a1.52,1.52,0,0,1-1.12-.46,1.49,1.49,0,0,1-.46-1.11V39.81a.21.21,0,0,0-.08-.17.26.26,0,0,0-.21-.08H210.75a.28.28,0,0,0-.25.25v8.84a1.53,1.53,0,0,1-.46,1.11,1.57,1.57,0,0,1-2.23,0,1.49,1.49,0,0,1-.46-1.11V26.83a1.51,1.51,0,0,1,.46-1.11,1.59,1.59,0,0,1,2.23,0,1.55,1.55,0,0,1,.46,1.11v9.29a.27.27,0,0,0,.09.2.2.2,0,0,0,.16.09H221.3a.24.24,0,0,0,.2-.09.27.27,0,0,0,.09-.2V26.83a1.49,1.49,0,0,1,.46-1.11,1.59,1.59,0,0,1,2.23,0,1.51,1.51,0,0,1,.46,1.11V48.65a1.49,1.49,0,0,1-.46,1.11A1.51,1.51,0,0,1,223.17,50.22Z"/><path class="cls-2" d="M91.44,16.84,92,18.27a34.17,34.17,0,0,1,13.9-2,30.36,30.36,0,0,1,17.66,7.35,19.21,19.21,0,0,1,6.69,13.64,18.88,18.88,0,0,1-9.08-1.57,20.79,20.79,0,0,1-6.79-5,26.71,26.71,0,0,1-4.08-5.95l-.51.11H108.6c2.64,5.38,5.59,9,9.2,11.58a19.79,19.79,0,0,0,13.13,3.74c.72,0,1.16-.12,2.25-.24,0,0,.06-.89.11-2.06a19.73,19.73,0,0,0-1-6.85,20.18,20.18,0,0,0-4.69-7.66c-3.78-3.94-10.23-7.7-20-8.69a32.77,32.77,0,0,1,0-10.52,25.67,25.67,0,0,1,.78-3.7L106.89,0a48,48,0,0,0-2.5,13.22A45.77,45.77,0,0,0,91.44,16.84Z"/></svg>